<mxfile host="app.diagrams.net" agent="Mozilla/5.0 (Macintosh; Intel Mac OS X 10_15_7) AppleWebKit/537.36 (KHTML, like Gecko) Chrome/128.0.0.0 Safari/537.36" version="24.8.0">
  <diagram name="Page-1" id="Mdfq8hc0ynKvEJOxc4af">
    <mxGraphModel dx="954" dy="727" grid="1" gridSize="10" guides="1" tooltips="1" connect="1" arrows="1" fold="1" page="1" pageScale="1" pageWidth="850" pageHeight="1100" math="0" shadow="0">
      <root>
        <mxCell id="0" />
        <mxCell id="1" parent="0" />
        <mxCell id="AmbVXzKGuxocrHXuVaO6-4" value="Convenio" style="rounded=0;whiteSpace=wrap;html=1;" vertex="1" parent="1">
          <mxGeometry x="520" y="440" width="120" height="60" as="geometry" />
        </mxCell>
        <mxCell id="AmbVXzKGuxocrHXuVaO6-179" value="" style="group" vertex="1" connectable="0" parent="1">
          <mxGeometry x="160" y="440" width="120" height="180" as="geometry" />
        </mxCell>
        <mxCell id="AmbVXzKGuxocrHXuVaO6-3" value="Paciente" style="rounded=0;whiteSpace=wrap;html=1;" vertex="1" parent="AmbVXzKGuxocrHXuVaO6-179">
          <mxGeometry width="120" height="60" as="geometry" />
        </mxCell>
        <mxCell id="AmbVXzKGuxocrHXuVaO6-136" value="" style="group" vertex="1" connectable="0" parent="AmbVXzKGuxocrHXuVaO6-179">
          <mxGeometry x="5" y="80" width="30" height="20" as="geometry" />
        </mxCell>
        <mxCell id="AmbVXzKGuxocrHXuVaO6-137" value="" style="endArrow=none;html=1;rounded=0;" edge="1" parent="AmbVXzKGuxocrHXuVaO6-136">
          <mxGeometry width="50" height="50" relative="1" as="geometry">
            <mxPoint y="20" as="sourcePoint" />
            <mxPoint as="targetPoint" />
          </mxGeometry>
        </mxCell>
        <mxCell id="AmbVXzKGuxocrHXuVaO6-138" value="" style="endArrow=oval;html=1;rounded=0;endFill=0;" edge="1" parent="AmbVXzKGuxocrHXuVaO6-136">
          <mxGeometry width="50" height="50" relative="1" as="geometry">
            <mxPoint y="20" as="sourcePoint" />
            <mxPoint x="30" y="20" as="targetPoint" />
          </mxGeometry>
        </mxCell>
        <mxCell id="AmbVXzKGuxocrHXuVaO6-139" value="email" style="edgeLabel;html=1;align=center;verticalAlign=middle;resizable=0;points=[];" vertex="1" connectable="0" parent="AmbVXzKGuxocrHXuVaO6-138">
          <mxGeometry x="0.53" y="2" relative="1" as="geometry">
            <mxPoint x="32" y="2" as="offset" />
          </mxGeometry>
        </mxCell>
        <mxCell id="AmbVXzKGuxocrHXuVaO6-140" value="" style="group" vertex="1" connectable="0" parent="AmbVXzKGuxocrHXuVaO6-179">
          <mxGeometry x="5" y="100" width="30" height="20" as="geometry" />
        </mxCell>
        <mxCell id="AmbVXzKGuxocrHXuVaO6-141" value="" style="endArrow=none;html=1;rounded=0;" edge="1" parent="AmbVXzKGuxocrHXuVaO6-140">
          <mxGeometry width="50" height="50" relative="1" as="geometry">
            <mxPoint y="20" as="sourcePoint" />
            <mxPoint as="targetPoint" />
          </mxGeometry>
        </mxCell>
        <mxCell id="AmbVXzKGuxocrHXuVaO6-142" value="" style="endArrow=oval;html=1;rounded=0;endFill=0;" edge="1" parent="AmbVXzKGuxocrHXuVaO6-140">
          <mxGeometry width="50" height="50" relative="1" as="geometry">
            <mxPoint y="20" as="sourcePoint" />
            <mxPoint x="30" y="20" as="targetPoint" />
          </mxGeometry>
        </mxCell>
        <mxCell id="AmbVXzKGuxocrHXuVaO6-143" value="telefone" style="edgeLabel;html=1;align=center;verticalAlign=middle;resizable=0;points=[];" vertex="1" connectable="0" parent="AmbVXzKGuxocrHXuVaO6-142">
          <mxGeometry x="0.53" y="2" relative="1" as="geometry">
            <mxPoint x="32" y="2" as="offset" />
          </mxGeometry>
        </mxCell>
        <mxCell id="AmbVXzKGuxocrHXuVaO6-144" value="" style="group" vertex="1" connectable="0" parent="AmbVXzKGuxocrHXuVaO6-179">
          <mxGeometry x="5" y="120" width="30" height="20" as="geometry" />
        </mxCell>
        <mxCell id="AmbVXzKGuxocrHXuVaO6-145" value="" style="endArrow=none;html=1;rounded=0;" edge="1" parent="AmbVXzKGuxocrHXuVaO6-144">
          <mxGeometry width="50" height="50" relative="1" as="geometry">
            <mxPoint y="20" as="sourcePoint" />
            <mxPoint as="targetPoint" />
          </mxGeometry>
        </mxCell>
        <mxCell id="AmbVXzKGuxocrHXuVaO6-146" value="" style="endArrow=oval;html=1;rounded=0;endFill=0;" edge="1" parent="AmbVXzKGuxocrHXuVaO6-144">
          <mxGeometry width="50" height="50" relative="1" as="geometry">
            <mxPoint y="20" as="sourcePoint" />
            <mxPoint x="30" y="20" as="targetPoint" />
          </mxGeometry>
        </mxCell>
        <mxCell id="AmbVXzKGuxocrHXuVaO6-147" value="email" style="edgeLabel;html=1;align=center;verticalAlign=middle;resizable=0;points=[];" vertex="1" connectable="0" parent="AmbVXzKGuxocrHXuVaO6-146">
          <mxGeometry x="0.53" y="2" relative="1" as="geometry">
            <mxPoint x="32" y="2" as="offset" />
          </mxGeometry>
        </mxCell>
        <mxCell id="AmbVXzKGuxocrHXuVaO6-148" value="" style="group" vertex="1" connectable="0" parent="AmbVXzKGuxocrHXuVaO6-179">
          <mxGeometry x="5" y="140" width="30" height="20" as="geometry" />
        </mxCell>
        <mxCell id="AmbVXzKGuxocrHXuVaO6-149" value="" style="endArrow=none;html=1;rounded=0;" edge="1" parent="AmbVXzKGuxocrHXuVaO6-148">
          <mxGeometry width="50" height="50" relative="1" as="geometry">
            <mxPoint y="20" as="sourcePoint" />
            <mxPoint as="targetPoint" />
          </mxGeometry>
        </mxCell>
        <mxCell id="AmbVXzKGuxocrHXuVaO6-150" value="" style="endArrow=oval;html=1;rounded=0;endFill=0;" edge="1" parent="AmbVXzKGuxocrHXuVaO6-148">
          <mxGeometry width="50" height="50" relative="1" as="geometry">
            <mxPoint y="20" as="sourcePoint" />
            <mxPoint x="30" y="20" as="targetPoint" />
          </mxGeometry>
        </mxCell>
        <mxCell id="AmbVXzKGuxocrHXuVaO6-151" value="nome" style="edgeLabel;html=1;align=center;verticalAlign=middle;resizable=0;points=[];" vertex="1" connectable="0" parent="AmbVXzKGuxocrHXuVaO6-150">
          <mxGeometry x="0.53" y="2" relative="1" as="geometry">
            <mxPoint x="32" y="2" as="offset" />
          </mxGeometry>
        </mxCell>
        <mxCell id="AmbVXzKGuxocrHXuVaO6-156" value="" style="group" vertex="1" connectable="0" parent="AmbVXzKGuxocrHXuVaO6-179">
          <mxGeometry x="5" y="60" width="30" height="20" as="geometry" />
        </mxCell>
        <mxCell id="AmbVXzKGuxocrHXuVaO6-157" value="" style="endArrow=none;html=1;rounded=0;" edge="1" parent="AmbVXzKGuxocrHXuVaO6-156">
          <mxGeometry width="50" height="50" relative="1" as="geometry">
            <mxPoint y="20" as="sourcePoint" />
            <mxPoint as="targetPoint" />
          </mxGeometry>
        </mxCell>
        <mxCell id="AmbVXzKGuxocrHXuVaO6-158" value="" style="endArrow=oval;html=1;rounded=0;endFill=0;" edge="1" parent="AmbVXzKGuxocrHXuVaO6-156">
          <mxGeometry width="50" height="50" relative="1" as="geometry">
            <mxPoint y="20" as="sourcePoint" />
            <mxPoint x="30" y="20" as="targetPoint" />
          </mxGeometry>
        </mxCell>
        <mxCell id="AmbVXzKGuxocrHXuVaO6-159" value="endereco" style="edgeLabel;html=1;align=center;verticalAlign=middle;resizable=0;points=[];" vertex="1" connectable="0" parent="AmbVXzKGuxocrHXuVaO6-158">
          <mxGeometry x="0.53" y="2" relative="1" as="geometry">
            <mxPoint x="37" y="2" as="offset" />
          </mxGeometry>
        </mxCell>
        <mxCell id="AmbVXzKGuxocrHXuVaO6-160" value="rua" style="edgeLabel;html=1;align=center;verticalAlign=middle;resizable=0;points=[];" vertex="1" connectable="0" parent="AmbVXzKGuxocrHXuVaO6-158">
          <mxGeometry x="0.53" y="2" relative="1" as="geometry">
            <mxPoint x="83" y="-10" as="offset" />
          </mxGeometry>
        </mxCell>
        <mxCell id="AmbVXzKGuxocrHXuVaO6-161" value="numero" style="edgeLabel;html=1;align=center;verticalAlign=middle;resizable=0;points=[];" vertex="1" connectable="0" parent="AmbVXzKGuxocrHXuVaO6-158">
          <mxGeometry x="0.53" y="2" relative="1" as="geometry">
            <mxPoint x="93" y="2" as="offset" />
          </mxGeometry>
        </mxCell>
        <mxCell id="AmbVXzKGuxocrHXuVaO6-162" value="complemento" style="edgeLabel;html=1;align=center;verticalAlign=middle;resizable=0;points=[];" vertex="1" connectable="0" parent="AmbVXzKGuxocrHXuVaO6-158">
          <mxGeometry x="0.53" y="2" relative="1" as="geometry">
            <mxPoint x="108" y="15" as="offset" />
          </mxGeometry>
        </mxCell>
        <mxCell id="AmbVXzKGuxocrHXuVaO6-163" value="bairro" style="edgeLabel;html=1;align=center;verticalAlign=middle;resizable=0;points=[];" vertex="1" connectable="0" parent="AmbVXzKGuxocrHXuVaO6-158">
          <mxGeometry x="0.53" y="2" relative="1" as="geometry">
            <mxPoint x="89" y="29" as="offset" />
          </mxGeometry>
        </mxCell>
        <mxCell id="AmbVXzKGuxocrHXuVaO6-164" value="cep" style="edgeLabel;html=1;align=center;verticalAlign=middle;resizable=0;points=[];" vertex="1" connectable="0" parent="AmbVXzKGuxocrHXuVaO6-158">
          <mxGeometry x="0.53" y="2" relative="1" as="geometry">
            <mxPoint x="84" y="57" as="offset" />
          </mxGeometry>
        </mxCell>
        <mxCell id="AmbVXzKGuxocrHXuVaO6-165" value="cidade" style="edgeLabel;html=1;align=center;verticalAlign=middle;resizable=0;points=[];" vertex="1" connectable="0" parent="AmbVXzKGuxocrHXuVaO6-158">
          <mxGeometry x="0.53" y="2" relative="1" as="geometry">
            <mxPoint x="91" y="43" as="offset" />
          </mxGeometry>
        </mxCell>
        <mxCell id="AmbVXzKGuxocrHXuVaO6-166" value="estado" style="edgeLabel;html=1;align=center;verticalAlign=middle;resizable=0;points=[];" vertex="1" connectable="0" parent="AmbVXzKGuxocrHXuVaO6-158">
          <mxGeometry x="0.53" y="2" relative="1" as="geometry">
            <mxPoint x="92" y="71" as="offset" />
          </mxGeometry>
        </mxCell>
        <mxCell id="AmbVXzKGuxocrHXuVaO6-167" value="" style="group" vertex="1" connectable="0" parent="AmbVXzKGuxocrHXuVaO6-179">
          <mxGeometry x="5" y="160" width="30" height="20" as="geometry" />
        </mxCell>
        <mxCell id="AmbVXzKGuxocrHXuVaO6-168" value="" style="endArrow=none;html=1;rounded=0;" edge="1" parent="AmbVXzKGuxocrHXuVaO6-167">
          <mxGeometry width="50" height="50" relative="1" as="geometry">
            <mxPoint y="20" as="sourcePoint" />
            <mxPoint as="targetPoint" />
          </mxGeometry>
        </mxCell>
        <mxCell id="AmbVXzKGuxocrHXuVaO6-169" value="" style="endArrow=oval;html=1;rounded=0;endFill=1;" edge="1" parent="AmbVXzKGuxocrHXuVaO6-167">
          <mxGeometry width="50" height="50" relative="1" as="geometry">
            <mxPoint y="20" as="sourcePoint" />
            <mxPoint x="30" y="20" as="targetPoint" />
          </mxGeometry>
        </mxCell>
        <mxCell id="AmbVXzKGuxocrHXuVaO6-170" value="cpf" style="edgeLabel;html=1;align=center;verticalAlign=middle;resizable=0;points=[];" vertex="1" connectable="0" parent="AmbVXzKGuxocrHXuVaO6-169">
          <mxGeometry x="0.53" y="2" relative="1" as="geometry">
            <mxPoint x="27" y="2" as="offset" />
          </mxGeometry>
        </mxCell>
        <mxCell id="AmbVXzKGuxocrHXuVaO6-171" value="" style="line;strokeWidth=1;direction=south;html=1;" vertex="1" parent="AmbVXzKGuxocrHXuVaO6-179">
          <mxGeometry x="84" y="67.5" width="10" height="83" as="geometry" />
        </mxCell>
        <mxCell id="AmbVXzKGuxocrHXuVaO6-172" value="" style="endArrow=oval;html=1;rounded=0;endFill=0;" edge="1" parent="AmbVXzKGuxocrHXuVaO6-179">
          <mxGeometry width="50" height="50" relative="1" as="geometry">
            <mxPoint x="89" y="68" as="sourcePoint" />
            <mxPoint x="99" y="68" as="targetPoint" />
          </mxGeometry>
        </mxCell>
        <mxCell id="AmbVXzKGuxocrHXuVaO6-173" value="" style="endArrow=oval;html=1;rounded=0;endFill=0;" edge="1" parent="AmbVXzKGuxocrHXuVaO6-179">
          <mxGeometry width="50" height="50" relative="1" as="geometry">
            <mxPoint x="89" y="80.77999999999997" as="sourcePoint" />
            <mxPoint x="99" y="80.77999999999997" as="targetPoint" />
          </mxGeometry>
        </mxCell>
        <mxCell id="AmbVXzKGuxocrHXuVaO6-174" value="" style="endArrow=oval;html=1;rounded=0;endFill=0;" edge="1" parent="AmbVXzKGuxocrHXuVaO6-179">
          <mxGeometry width="50" height="50" relative="1" as="geometry">
            <mxPoint x="89" y="93.77999999999997" as="sourcePoint" />
            <mxPoint x="99" y="93.77999999999997" as="targetPoint" />
          </mxGeometry>
        </mxCell>
        <mxCell id="AmbVXzKGuxocrHXuVaO6-175" value="" style="endArrow=oval;html=1;rounded=0;endFill=0;" edge="1" parent="AmbVXzKGuxocrHXuVaO6-179">
          <mxGeometry width="50" height="50" relative="1" as="geometry">
            <mxPoint x="89" y="107.77999999999997" as="sourcePoint" />
            <mxPoint x="99" y="107.77999999999997" as="targetPoint" />
          </mxGeometry>
        </mxCell>
        <mxCell id="AmbVXzKGuxocrHXuVaO6-176" value="" style="endArrow=oval;html=1;rounded=0;endFill=0;" edge="1" parent="AmbVXzKGuxocrHXuVaO6-179">
          <mxGeometry width="50" height="50" relative="1" as="geometry">
            <mxPoint x="89" y="121.77999999999997" as="sourcePoint" />
            <mxPoint x="99" y="121.77999999999997" as="targetPoint" />
          </mxGeometry>
        </mxCell>
        <mxCell id="AmbVXzKGuxocrHXuVaO6-177" value="" style="endArrow=oval;html=1;rounded=0;endFill=0;" edge="1" parent="AmbVXzKGuxocrHXuVaO6-179">
          <mxGeometry width="50" height="50" relative="1" as="geometry">
            <mxPoint x="89" y="135.77999999999997" as="sourcePoint" />
            <mxPoint x="99" y="135.77999999999997" as="targetPoint" />
          </mxGeometry>
        </mxCell>
        <mxCell id="AmbVXzKGuxocrHXuVaO6-178" value="" style="endArrow=oval;html=1;rounded=0;endFill=0;" edge="1" parent="AmbVXzKGuxocrHXuVaO6-179">
          <mxGeometry width="50" height="50" relative="1" as="geometry">
            <mxPoint x="89" y="149.77999999999997" as="sourcePoint" />
            <mxPoint x="99" y="149.77999999999997" as="targetPoint" />
          </mxGeometry>
        </mxCell>
        <mxCell id="AmbVXzKGuxocrHXuVaO6-180" value="" style="group" vertex="1" connectable="0" parent="1">
          <mxGeometry x="160" y="200" width="120" height="239" as="geometry" />
        </mxCell>
        <mxCell id="AmbVXzKGuxocrHXuVaO6-2" value="Consulta" style="rounded=0;whiteSpace=wrap;html=1;" vertex="1" parent="AmbVXzKGuxocrHXuVaO6-180">
          <mxGeometry width="120" height="60" as="geometry" />
        </mxCell>
        <mxCell id="AmbVXzKGuxocrHXuVaO6-120" value="" style="group" vertex="1" connectable="0" parent="AmbVXzKGuxocrHXuVaO6-180">
          <mxGeometry x="10" y="-20" width="30" height="20" as="geometry" />
        </mxCell>
        <mxCell id="AmbVXzKGuxocrHXuVaO6-121" value="" style="endArrow=none;html=1;rounded=0;" edge="1" parent="AmbVXzKGuxocrHXuVaO6-120">
          <mxGeometry width="50" height="50" relative="1" as="geometry">
            <mxPoint y="20" as="sourcePoint" />
            <mxPoint as="targetPoint" />
          </mxGeometry>
        </mxCell>
        <mxCell id="AmbVXzKGuxocrHXuVaO6-126" value="" style="group" vertex="1" connectable="0" parent="AmbVXzKGuxocrHXuVaO6-180">
          <mxGeometry x="10" y="-60" width="30" height="20" as="geometry" />
        </mxCell>
        <mxCell id="AmbVXzKGuxocrHXuVaO6-127" value="" style="endArrow=none;html=1;rounded=0;" edge="1" parent="AmbVXzKGuxocrHXuVaO6-126">
          <mxGeometry width="50" height="50" relative="1" as="geometry">
            <mxPoint y="20" as="sourcePoint" />
            <mxPoint as="targetPoint" />
          </mxGeometry>
        </mxCell>
        <mxCell id="AmbVXzKGuxocrHXuVaO6-128" value="" style="endArrow=oval;html=1;rounded=0;endFill=0;" edge="1" parent="AmbVXzKGuxocrHXuVaO6-126">
          <mxGeometry width="50" height="50" relative="1" as="geometry">
            <mxPoint y="20" as="sourcePoint" />
            <mxPoint x="30" y="20" as="targetPoint" />
          </mxGeometry>
        </mxCell>
        <mxCell id="AmbVXzKGuxocrHXuVaO6-129" value="data" style="edgeLabel;html=1;align=center;verticalAlign=middle;resizable=0;points=[];" vertex="1" connectable="0" parent="AmbVXzKGuxocrHXuVaO6-128">
          <mxGeometry x="0.53" y="2" relative="1" as="geometry">
            <mxPoint x="24" y="1" as="offset" />
          </mxGeometry>
        </mxCell>
        <mxCell id="AmbVXzKGuxocrHXuVaO6-122" value="" style="endArrow=oval;html=1;rounded=0;endFill=1;" edge="1" parent="AmbVXzKGuxocrHXuVaO6-126">
          <mxGeometry width="50" height="50" relative="1" as="geometry">
            <mxPoint as="sourcePoint" />
            <mxPoint x="30" as="targetPoint" />
          </mxGeometry>
        </mxCell>
        <mxCell id="AmbVXzKGuxocrHXuVaO6-123" value="id" style="edgeLabel;html=1;align=center;verticalAlign=middle;resizable=0;points=[];" vertex="1" connectable="0" parent="AmbVXzKGuxocrHXuVaO6-122">
          <mxGeometry x="0.53" y="2" relative="1" as="geometry">
            <mxPoint x="20" y="1" as="offset" />
          </mxGeometry>
        </mxCell>
        <mxCell id="AmbVXzKGuxocrHXuVaO6-132" value="" style="group" vertex="1" connectable="0" parent="AmbVXzKGuxocrHXuVaO6-180">
          <mxGeometry x="10" y="-40" width="30" height="20" as="geometry" />
        </mxCell>
        <mxCell id="AmbVXzKGuxocrHXuVaO6-133" value="" style="endArrow=none;html=1;rounded=0;" edge="1" parent="AmbVXzKGuxocrHXuVaO6-132">
          <mxGeometry width="50" height="50" relative="1" as="geometry">
            <mxPoint y="20" as="sourcePoint" />
            <mxPoint as="targetPoint" />
          </mxGeometry>
        </mxCell>
        <mxCell id="AmbVXzKGuxocrHXuVaO6-134" value="" style="endArrow=oval;html=1;rounded=0;endFill=0;" edge="1" parent="AmbVXzKGuxocrHXuVaO6-132">
          <mxGeometry width="50" height="50" relative="1" as="geometry">
            <mxPoint y="20" as="sourcePoint" />
            <mxPoint x="30" y="20" as="targetPoint" />
          </mxGeometry>
        </mxCell>
        <mxCell id="AmbVXzKGuxocrHXuVaO6-135" value="horario" style="edgeLabel;html=1;align=center;verticalAlign=middle;resizable=0;points=[];" vertex="1" connectable="0" parent="AmbVXzKGuxocrHXuVaO6-134">
          <mxGeometry x="0.53" y="2" relative="1" as="geometry">
            <mxPoint x="30" y="1" as="offset" />
          </mxGeometry>
        </mxCell>
        <mxCell id="AmbVXzKGuxocrHXuVaO6-244" value="" style="endArrow=none;html=1;rounded=0;entryX=0.5;entryY=1;entryDx=0;entryDy=0;" edge="1" parent="AmbVXzKGuxocrHXuVaO6-180">
          <mxGeometry width="50" height="50" relative="1" as="geometry">
            <mxPoint x="59.57000000000005" y="240" as="sourcePoint" />
            <mxPoint x="61" y="61" as="targetPoint" />
          </mxGeometry>
        </mxCell>
        <mxCell id="AmbVXzKGuxocrHXuVaO6-245" value="0, n" style="text;html=1;align=center;verticalAlign=middle;resizable=0;points=[];autosize=1;strokeColor=none;fillColor=none;" vertex="1" parent="AmbVXzKGuxocrHXuVaO6-180">
          <mxGeometry x="61" y="209" width="40" height="30" as="geometry" />
        </mxCell>
        <mxCell id="AmbVXzKGuxocrHXuVaO6-246" value="marca" style="rhombus;whiteSpace=wrap;html=1;" vertex="1" parent="AmbVXzKGuxocrHXuVaO6-180">
          <mxGeometry x="5" y="110" width="110" height="50" as="geometry" />
        </mxCell>
        <mxCell id="AmbVXzKGuxocrHXuVaO6-247" value="n:n" style="text;html=1;align=center;verticalAlign=middle;resizable=0;points=[];autosize=1;fillColor=none;fontColor=#FF3333;" vertex="1" parent="AmbVXzKGuxocrHXuVaO6-180">
          <mxGeometry x="51" y="150" width="40" height="30" as="geometry" />
        </mxCell>
        <mxCell id="AmbVXzKGuxocrHXuVaO6-249" value="0, n" style="text;html=1;align=center;verticalAlign=middle;resizable=0;points=[];autosize=1;strokeColor=none;fillColor=none;" vertex="1" parent="AmbVXzKGuxocrHXuVaO6-180">
          <mxGeometry x="21" y="60" width="40" height="30" as="geometry" />
        </mxCell>
        <mxCell id="AmbVXzKGuxocrHXuVaO6-243" value="1" style="text;html=1;align=center;verticalAlign=middle;resizable=0;points=[];autosize=1;strokeColor=none;fillColor=none;" vertex="1" parent="AmbVXzKGuxocrHXuVaO6-180">
          <mxGeometry x="31" y="209" width="30" height="30" as="geometry" />
        </mxCell>
        <mxCell id="AmbVXzKGuxocrHXuVaO6-248" value="1" style="text;html=1;align=center;verticalAlign=middle;resizable=0;points=[];autosize=1;strokeColor=none;fillColor=none;" vertex="1" parent="AmbVXzKGuxocrHXuVaO6-180">
          <mxGeometry x="61" y="60" width="30" height="30" as="geometry" />
        </mxCell>
        <mxCell id="AmbVXzKGuxocrHXuVaO6-191" value="" style="group" vertex="1" connectable="0" parent="1">
          <mxGeometry x="530" y="500" width="30" height="20" as="geometry" />
        </mxCell>
        <mxCell id="AmbVXzKGuxocrHXuVaO6-192" value="" style="endArrow=none;html=1;rounded=0;" edge="1" parent="AmbVXzKGuxocrHXuVaO6-191">
          <mxGeometry width="50" height="50" relative="1" as="geometry">
            <mxPoint y="20" as="sourcePoint" />
            <mxPoint as="targetPoint" />
          </mxGeometry>
        </mxCell>
        <mxCell id="AmbVXzKGuxocrHXuVaO6-193" value="" style="endArrow=oval;html=1;rounded=0;endFill=1;" edge="1" parent="AmbVXzKGuxocrHXuVaO6-191">
          <mxGeometry width="50" height="50" relative="1" as="geometry">
            <mxPoint y="20" as="sourcePoint" />
            <mxPoint x="30" y="20" as="targetPoint" />
          </mxGeometry>
        </mxCell>
        <mxCell id="AmbVXzKGuxocrHXuVaO6-194" value="id" style="edgeLabel;html=1;align=center;verticalAlign=middle;resizable=0;points=[];" vertex="1" connectable="0" parent="AmbVXzKGuxocrHXuVaO6-193">
          <mxGeometry x="0.53" y="2" relative="1" as="geometry">
            <mxPoint x="20" y="1" as="offset" />
          </mxGeometry>
        </mxCell>
        <mxCell id="AmbVXzKGuxocrHXuVaO6-195" value="" style="group" vertex="1" connectable="0" parent="1">
          <mxGeometry x="530" y="520" width="30" height="20" as="geometry" />
        </mxCell>
        <mxCell id="AmbVXzKGuxocrHXuVaO6-196" value="" style="endArrow=none;html=1;rounded=0;" edge="1" parent="AmbVXzKGuxocrHXuVaO6-195">
          <mxGeometry width="50" height="50" relative="1" as="geometry">
            <mxPoint y="20" as="sourcePoint" />
            <mxPoint as="targetPoint" />
          </mxGeometry>
        </mxCell>
        <mxCell id="AmbVXzKGuxocrHXuVaO6-197" value="" style="endArrow=oval;html=1;rounded=0;endFill=0;" edge="1" parent="AmbVXzKGuxocrHXuVaO6-195">
          <mxGeometry width="50" height="50" relative="1" as="geometry">
            <mxPoint y="20" as="sourcePoint" />
            <mxPoint x="30" y="20" as="targetPoint" />
          </mxGeometry>
        </mxCell>
        <mxCell id="AmbVXzKGuxocrHXuVaO6-198" value="empresa" style="edgeLabel;html=1;align=center;verticalAlign=middle;resizable=0;points=[];" vertex="1" connectable="0" parent="AmbVXzKGuxocrHXuVaO6-197">
          <mxGeometry x="0.53" y="2" relative="1" as="geometry">
            <mxPoint x="37" y="1" as="offset" />
          </mxGeometry>
        </mxCell>
        <mxCell id="AmbVXzKGuxocrHXuVaO6-199" value="" style="group" vertex="1" connectable="0" parent="1">
          <mxGeometry x="530" y="540" width="30" height="20" as="geometry" />
        </mxCell>
        <mxCell id="AmbVXzKGuxocrHXuVaO6-200" value="" style="endArrow=none;html=1;rounded=0;" edge="1" parent="AmbVXzKGuxocrHXuVaO6-199">
          <mxGeometry width="50" height="50" relative="1" as="geometry">
            <mxPoint y="20" as="sourcePoint" />
            <mxPoint as="targetPoint" />
          </mxGeometry>
        </mxCell>
        <mxCell id="AmbVXzKGuxocrHXuVaO6-201" value="" style="endArrow=oval;html=1;rounded=0;endFill=0;" edge="1" parent="AmbVXzKGuxocrHXuVaO6-199">
          <mxGeometry width="50" height="50" relative="1" as="geometry">
            <mxPoint y="20" as="sourcePoint" />
            <mxPoint x="30" y="20" as="targetPoint" />
          </mxGeometry>
        </mxCell>
        <mxCell id="AmbVXzKGuxocrHXuVaO6-202" value="tipo" style="edgeLabel;html=1;align=center;verticalAlign=middle;resizable=0;points=[];" vertex="1" connectable="0" parent="AmbVXzKGuxocrHXuVaO6-201">
          <mxGeometry x="0.53" y="2" relative="1" as="geometry">
            <mxPoint x="25" y="1" as="offset" />
          </mxGeometry>
        </mxCell>
        <mxCell id="AmbVXzKGuxocrHXuVaO6-203" value="" style="group" vertex="1" connectable="0" parent="1">
          <mxGeometry x="530" y="560" width="30" height="20" as="geometry" />
        </mxCell>
        <mxCell id="AmbVXzKGuxocrHXuVaO6-204" value="" style="endArrow=none;html=1;rounded=0;" edge="1" parent="AmbVXzKGuxocrHXuVaO6-203">
          <mxGeometry width="50" height="50" relative="1" as="geometry">
            <mxPoint y="20" as="sourcePoint" />
            <mxPoint as="targetPoint" />
          </mxGeometry>
        </mxCell>
        <mxCell id="AmbVXzKGuxocrHXuVaO6-205" value="" style="endArrow=oval;html=1;rounded=0;endFill=0;" edge="1" parent="AmbVXzKGuxocrHXuVaO6-203">
          <mxGeometry width="50" height="50" relative="1" as="geometry">
            <mxPoint y="20" as="sourcePoint" />
            <mxPoint x="30" y="20" as="targetPoint" />
          </mxGeometry>
        </mxCell>
        <mxCell id="AmbVXzKGuxocrHXuVaO6-206" value="vencimento" style="edgeLabel;html=1;align=center;verticalAlign=middle;resizable=0;points=[];" vertex="1" connectable="0" parent="AmbVXzKGuxocrHXuVaO6-205">
          <mxGeometry x="0.53" y="2" relative="1" as="geometry">
            <mxPoint x="44" y="1" as="offset" />
          </mxGeometry>
        </mxCell>
        <mxCell id="AmbVXzKGuxocrHXuVaO6-207" value="" style="group" vertex="1" connectable="0" parent="1">
          <mxGeometry x="530" y="580" width="30" height="20" as="geometry" />
        </mxCell>
        <mxCell id="AmbVXzKGuxocrHXuVaO6-208" value="" style="endArrow=none;html=1;rounded=0;" edge="1" parent="AmbVXzKGuxocrHXuVaO6-207">
          <mxGeometry width="50" height="50" relative="1" as="geometry">
            <mxPoint y="20" as="sourcePoint" />
            <mxPoint as="targetPoint" />
          </mxGeometry>
        </mxCell>
        <mxCell id="AmbVXzKGuxocrHXuVaO6-209" value="" style="endArrow=oval;html=1;rounded=0;endFill=0;" edge="1" parent="AmbVXzKGuxocrHXuVaO6-207">
          <mxGeometry width="50" height="50" relative="1" as="geometry">
            <mxPoint y="20" as="sourcePoint" />
            <mxPoint x="30" y="20" as="targetPoint" />
          </mxGeometry>
        </mxCell>
        <mxCell id="AmbVXzKGuxocrHXuVaO6-210" value="percentual" style="edgeLabel;html=1;align=center;verticalAlign=middle;resizable=0;points=[];" vertex="1" connectable="0" parent="AmbVXzKGuxocrHXuVaO6-209">
          <mxGeometry x="0.53" y="2" relative="1" as="geometry">
            <mxPoint x="41" y="1" as="offset" />
          </mxGeometry>
        </mxCell>
        <mxCell id="AmbVXzKGuxocrHXuVaO6-224" value="" style="endArrow=none;html=1;rounded=0;entryX=0.5;entryY=1;entryDx=0;entryDy=0;" edge="1" parent="1" target="AmbVXzKGuxocrHXuVaO6-1">
          <mxGeometry width="50" height="50" relative="1" as="geometry">
            <mxPoint x="578.57" y="440" as="sourcePoint" />
            <mxPoint x="578.57" y="360" as="targetPoint" />
          </mxGeometry>
        </mxCell>
        <mxCell id="AmbVXzKGuxocrHXuVaO6-219" value="atende" style="rhombus;whiteSpace=wrap;html=1;" vertex="1" parent="1">
          <mxGeometry x="524" y="310" width="110" height="50" as="geometry" />
        </mxCell>
        <mxCell id="AmbVXzKGuxocrHXuVaO6-225" value="n:n" style="text;html=1;align=center;verticalAlign=middle;resizable=0;points=[];autosize=1;fillColor=none;fontColor=#FF3333;" vertex="1" parent="1">
          <mxGeometry x="570" y="350" width="40" height="30" as="geometry" />
        </mxCell>
        <mxCell id="AmbVXzKGuxocrHXuVaO6-227" value="0, n" style="text;html=1;align=center;verticalAlign=middle;resizable=0;points=[];autosize=1;strokeColor=none;fillColor=none;" vertex="1" parent="1">
          <mxGeometry x="580" y="260" width="40" height="30" as="geometry" />
        </mxCell>
        <mxCell id="AmbVXzKGuxocrHXuVaO6-228" value="1" style="text;html=1;align=center;verticalAlign=middle;resizable=0;points=[];autosize=1;strokeColor=none;fillColor=none;" vertex="1" parent="1">
          <mxGeometry x="580" y="409" width="30" height="30" as="geometry" />
        </mxCell>
        <mxCell id="AmbVXzKGuxocrHXuVaO6-220" value="" style="group" vertex="1" connectable="0" parent="1">
          <mxGeometry x="535" y="41" width="94" height="140" as="geometry" />
        </mxCell>
        <mxCell id="AmbVXzKGuxocrHXuVaO6-23" value="" style="group" vertex="1" connectable="0" parent="AmbVXzKGuxocrHXuVaO6-220">
          <mxGeometry x="-5" y="40" width="30" height="20" as="geometry" />
        </mxCell>
        <mxCell id="AmbVXzKGuxocrHXuVaO6-21" value="" style="endArrow=none;html=1;rounded=0;" edge="1" parent="AmbVXzKGuxocrHXuVaO6-23">
          <mxGeometry width="50" height="50" relative="1" as="geometry">
            <mxPoint y="20" as="sourcePoint" />
            <mxPoint as="targetPoint" />
          </mxGeometry>
        </mxCell>
        <mxCell id="AmbVXzKGuxocrHXuVaO6-22" value="" style="endArrow=oval;html=1;rounded=0;endFill=0;" edge="1" parent="AmbVXzKGuxocrHXuVaO6-23">
          <mxGeometry width="50" height="50" relative="1" as="geometry">
            <mxPoint y="20" as="sourcePoint" />
            <mxPoint x="30" y="20" as="targetPoint" />
          </mxGeometry>
        </mxCell>
        <mxCell id="AmbVXzKGuxocrHXuVaO6-26" value="email" style="edgeLabel;html=1;align=center;verticalAlign=middle;resizable=0;points=[];" vertex="1" connectable="0" parent="AmbVXzKGuxocrHXuVaO6-22">
          <mxGeometry x="0.53" y="2" relative="1" as="geometry">
            <mxPoint x="32" y="2" as="offset" />
          </mxGeometry>
        </mxCell>
        <mxCell id="AmbVXzKGuxocrHXuVaO6-27" value="" style="group" vertex="1" connectable="0" parent="AmbVXzKGuxocrHXuVaO6-220">
          <mxGeometry x="-5" y="60" width="30" height="20" as="geometry" />
        </mxCell>
        <mxCell id="AmbVXzKGuxocrHXuVaO6-28" value="" style="endArrow=none;html=1;rounded=0;" edge="1" parent="AmbVXzKGuxocrHXuVaO6-27">
          <mxGeometry width="50" height="50" relative="1" as="geometry">
            <mxPoint y="20" as="sourcePoint" />
            <mxPoint as="targetPoint" />
          </mxGeometry>
        </mxCell>
        <mxCell id="AmbVXzKGuxocrHXuVaO6-29" value="" style="endArrow=oval;html=1;rounded=0;endFill=0;" edge="1" parent="AmbVXzKGuxocrHXuVaO6-27">
          <mxGeometry width="50" height="50" relative="1" as="geometry">
            <mxPoint y="20" as="sourcePoint" />
            <mxPoint x="30" y="20" as="targetPoint" />
          </mxGeometry>
        </mxCell>
        <mxCell id="AmbVXzKGuxocrHXuVaO6-30" value="telefone" style="edgeLabel;html=1;align=center;verticalAlign=middle;resizable=0;points=[];" vertex="1" connectable="0" parent="AmbVXzKGuxocrHXuVaO6-29">
          <mxGeometry x="0.53" y="2" relative="1" as="geometry">
            <mxPoint x="32" y="2" as="offset" />
          </mxGeometry>
        </mxCell>
        <mxCell id="AmbVXzKGuxocrHXuVaO6-31" value="" style="group" vertex="1" connectable="0" parent="AmbVXzKGuxocrHXuVaO6-220">
          <mxGeometry x="-5" y="80" width="30" height="20" as="geometry" />
        </mxCell>
        <mxCell id="AmbVXzKGuxocrHXuVaO6-32" value="" style="endArrow=none;html=1;rounded=0;" edge="1" parent="AmbVXzKGuxocrHXuVaO6-31">
          <mxGeometry width="50" height="50" relative="1" as="geometry">
            <mxPoint y="20" as="sourcePoint" />
            <mxPoint as="targetPoint" />
          </mxGeometry>
        </mxCell>
        <mxCell id="AmbVXzKGuxocrHXuVaO6-33" value="" style="endArrow=oval;html=1;rounded=0;endFill=0;" edge="1" parent="AmbVXzKGuxocrHXuVaO6-31">
          <mxGeometry width="50" height="50" relative="1" as="geometry">
            <mxPoint y="20" as="sourcePoint" />
            <mxPoint x="30" y="20" as="targetPoint" />
          </mxGeometry>
        </mxCell>
        <mxCell id="AmbVXzKGuxocrHXuVaO6-34" value="email" style="edgeLabel;html=1;align=center;verticalAlign=middle;resizable=0;points=[];" vertex="1" connectable="0" parent="AmbVXzKGuxocrHXuVaO6-33">
          <mxGeometry x="0.53" y="2" relative="1" as="geometry">
            <mxPoint x="32" y="2" as="offset" />
          </mxGeometry>
        </mxCell>
        <mxCell id="AmbVXzKGuxocrHXuVaO6-35" value="" style="group" vertex="1" connectable="0" parent="AmbVXzKGuxocrHXuVaO6-220">
          <mxGeometry x="-5" y="100" width="30" height="20" as="geometry" />
        </mxCell>
        <mxCell id="AmbVXzKGuxocrHXuVaO6-36" value="" style="endArrow=none;html=1;rounded=0;" edge="1" parent="AmbVXzKGuxocrHXuVaO6-35">
          <mxGeometry width="50" height="50" relative="1" as="geometry">
            <mxPoint y="20" as="sourcePoint" />
            <mxPoint as="targetPoint" />
          </mxGeometry>
        </mxCell>
        <mxCell id="AmbVXzKGuxocrHXuVaO6-37" value="" style="endArrow=oval;html=1;rounded=0;endFill=0;" edge="1" parent="AmbVXzKGuxocrHXuVaO6-35">
          <mxGeometry width="50" height="50" relative="1" as="geometry">
            <mxPoint y="20" as="sourcePoint" />
            <mxPoint x="30" y="20" as="targetPoint" />
          </mxGeometry>
        </mxCell>
        <mxCell id="AmbVXzKGuxocrHXuVaO6-38" value="nome" style="edgeLabel;html=1;align=center;verticalAlign=middle;resizable=0;points=[];" vertex="1" connectable="0" parent="AmbVXzKGuxocrHXuVaO6-37">
          <mxGeometry x="0.53" y="2" relative="1" as="geometry">
            <mxPoint x="32" y="2" as="offset" />
          </mxGeometry>
        </mxCell>
        <mxCell id="AmbVXzKGuxocrHXuVaO6-43" value="" style="group" vertex="1" connectable="0" parent="AmbVXzKGuxocrHXuVaO6-220">
          <mxGeometry x="-5" y="120" width="30" height="20" as="geometry" />
        </mxCell>
        <mxCell id="AmbVXzKGuxocrHXuVaO6-44" value="" style="endArrow=none;html=1;rounded=0;" edge="1" parent="AmbVXzKGuxocrHXuVaO6-43">
          <mxGeometry width="50" height="50" relative="1" as="geometry">
            <mxPoint y="20" as="sourcePoint" />
            <mxPoint as="targetPoint" />
          </mxGeometry>
        </mxCell>
        <mxCell id="AmbVXzKGuxocrHXuVaO6-45" value="" style="endArrow=oval;html=1;rounded=0;endFill=0;" edge="1" parent="AmbVXzKGuxocrHXuVaO6-43">
          <mxGeometry width="50" height="50" relative="1" as="geometry">
            <mxPoint y="20" as="sourcePoint" />
            <mxPoint x="30" y="20" as="targetPoint" />
          </mxGeometry>
        </mxCell>
        <mxCell id="AmbVXzKGuxocrHXuVaO6-46" value="especialidade" style="edgeLabel;html=1;align=center;verticalAlign=middle;resizable=0;points=[];" vertex="1" connectable="0" parent="AmbVXzKGuxocrHXuVaO6-45">
          <mxGeometry x="0.53" y="2" relative="1" as="geometry">
            <mxPoint x="47" y="2" as="offset" />
          </mxGeometry>
        </mxCell>
        <mxCell id="AmbVXzKGuxocrHXuVaO6-67" value="" style="group" vertex="1" connectable="0" parent="AmbVXzKGuxocrHXuVaO6-220">
          <mxGeometry width="30" height="20" as="geometry" />
        </mxCell>
        <mxCell id="AmbVXzKGuxocrHXuVaO6-69" value="" style="endArrow=oval;html=1;rounded=0;endFill=0;" edge="1" parent="AmbVXzKGuxocrHXuVaO6-67">
          <mxGeometry width="50" height="50" relative="1" as="geometry">
            <mxPoint x="-5" y="40" as="sourcePoint" />
            <mxPoint x="25" y="40" as="targetPoint" />
          </mxGeometry>
        </mxCell>
        <mxCell id="AmbVXzKGuxocrHXuVaO6-70" value="endereco" style="edgeLabel;html=1;align=center;verticalAlign=middle;resizable=0;points=[];" vertex="1" connectable="0" parent="AmbVXzKGuxocrHXuVaO6-69">
          <mxGeometry x="0.53" y="2" relative="1" as="geometry">
            <mxPoint x="37" y="2" as="offset" />
          </mxGeometry>
        </mxCell>
        <mxCell id="AmbVXzKGuxocrHXuVaO6-80" value="rua" style="edgeLabel;html=1;align=center;verticalAlign=middle;resizable=0;points=[];" vertex="1" connectable="0" parent="AmbVXzKGuxocrHXuVaO6-69">
          <mxGeometry x="0.53" y="2" relative="1" as="geometry">
            <mxPoint x="83" y="-10" as="offset" />
          </mxGeometry>
        </mxCell>
        <mxCell id="AmbVXzKGuxocrHXuVaO6-81" value="numero" style="edgeLabel;html=1;align=center;verticalAlign=middle;resizable=0;points=[];" vertex="1" connectable="0" parent="AmbVXzKGuxocrHXuVaO6-69">
          <mxGeometry x="0.53" y="2" relative="1" as="geometry">
            <mxPoint x="93" y="2" as="offset" />
          </mxGeometry>
        </mxCell>
        <mxCell id="AmbVXzKGuxocrHXuVaO6-82" value="complemento" style="edgeLabel;html=1;align=center;verticalAlign=middle;resizable=0;points=[];" vertex="1" connectable="0" parent="AmbVXzKGuxocrHXuVaO6-69">
          <mxGeometry x="0.53" y="2" relative="1" as="geometry">
            <mxPoint x="108" y="15" as="offset" />
          </mxGeometry>
        </mxCell>
        <mxCell id="AmbVXzKGuxocrHXuVaO6-83" value="bairro" style="edgeLabel;html=1;align=center;verticalAlign=middle;resizable=0;points=[];" vertex="1" connectable="0" parent="AmbVXzKGuxocrHXuVaO6-69">
          <mxGeometry x="0.53" y="2" relative="1" as="geometry">
            <mxPoint x="89" y="29" as="offset" />
          </mxGeometry>
        </mxCell>
        <mxCell id="AmbVXzKGuxocrHXuVaO6-84" value="cep" style="edgeLabel;html=1;align=center;verticalAlign=middle;resizable=0;points=[];" vertex="1" connectable="0" parent="AmbVXzKGuxocrHXuVaO6-69">
          <mxGeometry x="0.53" y="2" relative="1" as="geometry">
            <mxPoint x="84" y="57" as="offset" />
          </mxGeometry>
        </mxCell>
        <mxCell id="AmbVXzKGuxocrHXuVaO6-85" value="cidade" style="edgeLabel;html=1;align=center;verticalAlign=middle;resizable=0;points=[];" vertex="1" connectable="0" parent="AmbVXzKGuxocrHXuVaO6-69">
          <mxGeometry x="0.53" y="2" relative="1" as="geometry">
            <mxPoint x="91" y="43" as="offset" />
          </mxGeometry>
        </mxCell>
        <mxCell id="AmbVXzKGuxocrHXuVaO6-86" value="estado" style="edgeLabel;html=1;align=center;verticalAlign=middle;resizable=0;points=[];" vertex="1" connectable="0" parent="AmbVXzKGuxocrHXuVaO6-69">
          <mxGeometry x="0.53" y="2" relative="1" as="geometry">
            <mxPoint x="92" y="71" as="offset" />
          </mxGeometry>
        </mxCell>
        <mxCell id="AmbVXzKGuxocrHXuVaO6-71" value="" style="group" vertex="1" connectable="0" parent="AmbVXzKGuxocrHXuVaO6-67">
          <mxGeometry x="-5" width="30" height="20" as="geometry" />
        </mxCell>
        <mxCell id="AmbVXzKGuxocrHXuVaO6-73" value="" style="endArrow=oval;html=1;rounded=0;endFill=1;" edge="1" parent="AmbVXzKGuxocrHXuVaO6-71">
          <mxGeometry width="50" height="50" relative="1" as="geometry">
            <mxPoint y="20" as="sourcePoint" />
            <mxPoint x="30" y="20" as="targetPoint" />
          </mxGeometry>
        </mxCell>
        <mxCell id="AmbVXzKGuxocrHXuVaO6-74" value="crm" style="edgeLabel;html=1;align=center;verticalAlign=middle;resizable=0;points=[];" vertex="1" connectable="0" parent="AmbVXzKGuxocrHXuVaO6-73">
          <mxGeometry x="0.53" y="2" relative="1" as="geometry">
            <mxPoint x="27" y="2" as="offset" />
          </mxGeometry>
        </mxCell>
        <mxCell id="AmbVXzKGuxocrHXuVaO6-77" value="" style="line;strokeWidth=1;direction=south;html=1;" vertex="1" parent="AmbVXzKGuxocrHXuVaO6-220">
          <mxGeometry x="74" y="27.5" width="10" height="83" as="geometry" />
        </mxCell>
        <mxCell id="AmbVXzKGuxocrHXuVaO6-104" value="" style="endArrow=oval;html=1;rounded=0;endFill=0;" edge="1" parent="AmbVXzKGuxocrHXuVaO6-220">
          <mxGeometry width="50" height="50" relative="1" as="geometry">
            <mxPoint x="79" y="28" as="sourcePoint" />
            <mxPoint x="89" y="28" as="targetPoint" />
          </mxGeometry>
        </mxCell>
        <mxCell id="AmbVXzKGuxocrHXuVaO6-113" value="" style="endArrow=oval;html=1;rounded=0;endFill=0;" edge="1" parent="AmbVXzKGuxocrHXuVaO6-220">
          <mxGeometry width="50" height="50" relative="1" as="geometry">
            <mxPoint x="79" y="40.77999999999997" as="sourcePoint" />
            <mxPoint x="89" y="40.77999999999997" as="targetPoint" />
          </mxGeometry>
        </mxCell>
        <mxCell id="AmbVXzKGuxocrHXuVaO6-114" value="" style="endArrow=oval;html=1;rounded=0;endFill=0;" edge="1" parent="AmbVXzKGuxocrHXuVaO6-220">
          <mxGeometry width="50" height="50" relative="1" as="geometry">
            <mxPoint x="79" y="53.77999999999997" as="sourcePoint" />
            <mxPoint x="89" y="53.77999999999997" as="targetPoint" />
          </mxGeometry>
        </mxCell>
        <mxCell id="AmbVXzKGuxocrHXuVaO6-115" value="" style="endArrow=oval;html=1;rounded=0;endFill=0;" edge="1" parent="AmbVXzKGuxocrHXuVaO6-220">
          <mxGeometry width="50" height="50" relative="1" as="geometry">
            <mxPoint x="79" y="67.77999999999997" as="sourcePoint" />
            <mxPoint x="89" y="67.77999999999997" as="targetPoint" />
          </mxGeometry>
        </mxCell>
        <mxCell id="AmbVXzKGuxocrHXuVaO6-116" value="" style="endArrow=oval;html=1;rounded=0;endFill=0;" edge="1" parent="AmbVXzKGuxocrHXuVaO6-220">
          <mxGeometry width="50" height="50" relative="1" as="geometry">
            <mxPoint x="79" y="81.77999999999997" as="sourcePoint" />
            <mxPoint x="89" y="81.77999999999997" as="targetPoint" />
          </mxGeometry>
        </mxCell>
        <mxCell id="AmbVXzKGuxocrHXuVaO6-117" value="" style="endArrow=oval;html=1;rounded=0;endFill=0;" edge="1" parent="AmbVXzKGuxocrHXuVaO6-220">
          <mxGeometry width="50" height="50" relative="1" as="geometry">
            <mxPoint x="79" y="95.77999999999997" as="sourcePoint" />
            <mxPoint x="89" y="95.77999999999997" as="targetPoint" />
          </mxGeometry>
        </mxCell>
        <mxCell id="AmbVXzKGuxocrHXuVaO6-118" value="" style="endArrow=oval;html=1;rounded=0;endFill=0;" edge="1" parent="AmbVXzKGuxocrHXuVaO6-220">
          <mxGeometry width="50" height="50" relative="1" as="geometry">
            <mxPoint x="79" y="109.77999999999997" as="sourcePoint" />
            <mxPoint x="89" y="109.77999999999997" as="targetPoint" />
          </mxGeometry>
        </mxCell>
        <mxCell id="AmbVXzKGuxocrHXuVaO6-68" value="" style="endArrow=none;html=1;rounded=0;" edge="1" parent="1">
          <mxGeometry width="50" height="50" relative="1" as="geometry">
            <mxPoint x="530" y="201" as="sourcePoint" />
            <mxPoint x="530" y="181" as="targetPoint" />
          </mxGeometry>
        </mxCell>
        <mxCell id="AmbVXzKGuxocrHXuVaO6-72" value="" style="endArrow=none;html=1;rounded=0;" edge="1" parent="1">
          <mxGeometry width="50" height="50" relative="1" as="geometry">
            <mxPoint x="530" y="81" as="sourcePoint" />
            <mxPoint x="530" y="61" as="targetPoint" />
          </mxGeometry>
        </mxCell>
        <mxCell id="AmbVXzKGuxocrHXuVaO6-1" value="Medico" style="rounded=0;whiteSpace=wrap;html=1;" vertex="1" parent="1">
          <mxGeometry x="520" y="201" width="120" height="60" as="geometry" />
        </mxCell>
        <mxCell id="AmbVXzKGuxocrHXuVaO6-229" value="0, n" style="text;html=1;align=center;verticalAlign=middle;resizable=0;points=[];autosize=1;strokeColor=none;fillColor=none;" vertex="1" parent="1">
          <mxGeometry x="540" y="409" width="40" height="30" as="geometry" />
        </mxCell>
        <mxCell id="AmbVXzKGuxocrHXuVaO6-226" value="1" style="text;html=1;align=center;verticalAlign=middle;resizable=0;points=[];autosize=1;strokeColor=none;fillColor=none;" vertex="1" parent="1">
          <mxGeometry x="550" y="261" width="30" height="30" as="geometry" />
        </mxCell>
        <mxCell id="AmbVXzKGuxocrHXuVaO6-234" value="" style="group" vertex="1" connectable="0" parent="1">
          <mxGeometry x="280" y="200" width="240" height="78" as="geometry" />
        </mxCell>
        <mxCell id="AmbVXzKGuxocrHXuVaO6-212" value="" style="endArrow=none;html=1;rounded=0;entryX=0;entryY=0.5;entryDx=0;entryDy=0;" edge="1" parent="AmbVXzKGuxocrHXuVaO6-234">
          <mxGeometry width="50" height="50" relative="1" as="geometry">
            <mxPoint y="29.569999999999993" as="sourcePoint" />
            <mxPoint x="240" y="30" as="targetPoint" />
          </mxGeometry>
        </mxCell>
        <mxCell id="AmbVXzKGuxocrHXuVaO6-211" value="realiza" style="rhombus;whiteSpace=wrap;html=1;" vertex="1" parent="AmbVXzKGuxocrHXuVaO6-234">
          <mxGeometry x="60" y="5" width="110" height="50" as="geometry" />
        </mxCell>
        <mxCell id="AmbVXzKGuxocrHXuVaO6-214" value="n:n" style="text;html=1;align=center;verticalAlign=middle;resizable=0;points=[];autosize=1;strokeColor=none;fillColor=none;fontColor=#FF3333;" vertex="1" parent="AmbVXzKGuxocrHXuVaO6-234">
          <mxGeometry x="95" y="48" width="40" height="30" as="geometry" />
        </mxCell>
        <mxCell id="AmbVXzKGuxocrHXuVaO6-215" value="1" style="text;html=1;align=center;verticalAlign=middle;resizable=0;points=[];autosize=1;strokeColor=none;fillColor=none;" vertex="1" parent="AmbVXzKGuxocrHXuVaO6-234">
          <mxGeometry y="31" width="30" height="30" as="geometry" />
        </mxCell>
        <mxCell id="AmbVXzKGuxocrHXuVaO6-216" value="0, n" style="text;html=1;align=center;verticalAlign=middle;resizable=0;points=[];autosize=1;strokeColor=none;fillColor=none;" vertex="1" parent="AmbVXzKGuxocrHXuVaO6-234">
          <mxGeometry x="200" y="30" width="40" height="30" as="geometry" />
        </mxCell>
        <mxCell id="AmbVXzKGuxocrHXuVaO6-217" value="0, n" style="text;html=1;align=center;verticalAlign=middle;resizable=0;points=[];autosize=1;strokeColor=none;fillColor=none;" vertex="1" parent="AmbVXzKGuxocrHXuVaO6-234">
          <mxGeometry width="40" height="30" as="geometry" />
        </mxCell>
        <mxCell id="AmbVXzKGuxocrHXuVaO6-218" value="1" style="text;html=1;align=center;verticalAlign=middle;resizable=0;points=[];autosize=1;strokeColor=none;fillColor=none;" vertex="1" parent="AmbVXzKGuxocrHXuVaO6-234">
          <mxGeometry x="210" width="30" height="30" as="geometry" />
        </mxCell>
        <mxCell id="AmbVXzKGuxocrHXuVaO6-235" value="" style="group" vertex="1" connectable="0" parent="1">
          <mxGeometry x="280" y="440" width="240" height="78" as="geometry" />
        </mxCell>
        <mxCell id="AmbVXzKGuxocrHXuVaO6-236" value="" style="endArrow=none;html=1;rounded=0;entryX=0;entryY=0.5;entryDx=0;entryDy=0;" edge="1" parent="AmbVXzKGuxocrHXuVaO6-235">
          <mxGeometry width="50" height="50" relative="1" as="geometry">
            <mxPoint y="29.569999999999993" as="sourcePoint" />
            <mxPoint x="240" y="30" as="targetPoint" />
          </mxGeometry>
        </mxCell>
        <mxCell id="AmbVXzKGuxocrHXuVaO6-237" value="possui" style="rhombus;whiteSpace=wrap;html=1;" vertex="1" parent="AmbVXzKGuxocrHXuVaO6-235">
          <mxGeometry x="60" y="5" width="110" height="50" as="geometry" />
        </mxCell>
        <mxCell id="AmbVXzKGuxocrHXuVaO6-238" value="n:n" style="text;html=1;align=center;verticalAlign=middle;resizable=0;points=[];autosize=1;strokeColor=none;fillColor=none;fontColor=#FF3333;" vertex="1" parent="AmbVXzKGuxocrHXuVaO6-235">
          <mxGeometry x="95" y="48" width="40" height="30" as="geometry" />
        </mxCell>
        <mxCell id="AmbVXzKGuxocrHXuVaO6-240" value="0, n" style="text;html=1;align=center;verticalAlign=middle;resizable=0;points=[];autosize=1;strokeColor=none;fillColor=none;" vertex="1" parent="AmbVXzKGuxocrHXuVaO6-235">
          <mxGeometry y="30" width="40" height="30" as="geometry" />
        </mxCell>
        <mxCell id="AmbVXzKGuxocrHXuVaO6-242" value="1" style="text;html=1;align=center;verticalAlign=middle;resizable=0;points=[];autosize=1;strokeColor=none;fillColor=none;" vertex="1" parent="AmbVXzKGuxocrHXuVaO6-235">
          <mxGeometry width="30" height="30" as="geometry" />
        </mxCell>
        <mxCell id="AmbVXzKGuxocrHXuVaO6-241" value="0, n" style="text;html=1;align=center;verticalAlign=middle;resizable=0;points=[];autosize=1;strokeColor=none;fillColor=none;" vertex="1" parent="AmbVXzKGuxocrHXuVaO6-235">
          <mxGeometry x="200" width="40" height="30" as="geometry" />
        </mxCell>
        <mxCell id="AmbVXzKGuxocrHXuVaO6-239" value="1" style="text;html=1;align=center;verticalAlign=middle;resizable=0;points=[];autosize=1;strokeColor=none;fillColor=none;" vertex="1" parent="AmbVXzKGuxocrHXuVaO6-235">
          <mxGeometry x="210" y="30" width="30" height="30" as="geometry" />
        </mxCell>
      </root>
    </mxGraphModel>
  </diagram>
</mxfile>
